<svg id="svg" version="1.1" width="400" height="400" viewBox="0 0 400 400" xmlns="http://www.w3.org/2000/svg" xmlns:xlink="http://www.w3.org/1999/xlink"><g id="svgg"><path id="path0" d="M189.600 101.627 C 162.700 104.928,137.255 118.578,122.170 137.800 C 121.306 138.900,120.510 139.890,120.400 140.000 C 117.841 142.559,110.157 155.543,107.445 161.889 C 81.767 221.985,122.453 290.847,188.000 298.229 C 259.109 306.238,315.409 242.501,297.349 174.438 C 291.499 152.388,273.843 128.315,255.525 117.411 C 254.796 116.977,253.210 116.024,252.000 115.294 C 234.466 104.710,209.333 99.205,189.600 101.627 M214.600 122.739 C 223.725 125.026,233.980 130.319,238.478 135.063 C 239.806 136.464,239.515 136.950,235.678 139.736 L 233.157 141.567 230.290 139.522 C 212.664 126.945,189.448 126.654,171.165 138.780 C 166.956 141.572,167.570 141.578,163.676 138.706 C 160.296 136.213,160.478 135.448,165.306 131.858 C 178.208 122.266,198.058 118.593,214.600 122.739 M206.000 134.189 C 213.753 135.380,219.403 137.648,225.085 141.850 C 228.679 144.508,228.700 144.263,224.628 147.157 L 221.257 149.553 217.728 147.609 C 205.073 140.635,191.631 141.241,179.900 149.314 C 179.425 149.641,179.023 149.668,178.649 149.398 C 171.498 144.230,171.426 144.134,173.498 142.547 C 182.629 135.555,194.697 132.452,206.000 134.189 M206.400 147.761 C 209.702 148.559,216.825 152.020,216.772 152.800 C 216.765 152.910,215.041 154.142,212.941 155.537 L 209.123 158.075 206.862 157.075 C 202.694 155.234,197.043 155.321,192.991 157.289 L 191.264 158.129 188.532 156.261 C 187.029 155.233,185.272 153.971,184.628 153.456 L 183.455 152.520 186.182 150.995 C 192.602 147.405,200.022 146.218,206.400 147.761 M168.510 153.045 C 174.646 156.113,185.813 162.164,186.082 162.566 C 186.237 162.799,186.327 166.681,186.282 171.194 L 186.200 179.400 194.523 179.260 L 202.847 179.121 202.570 197.260 C 202.417 207.237,202.225 215.477,202.142 215.571 C 202.010 215.721,182.641 209.292,160.616 201.787 C 156.444 200.366,152.754 198.925,152.416 198.587 C 151.863 198.034,151.578 174.289,152.118 173.749 C 152.284 173.583,162.955 177.041,163.999 177.600 C 164.793 178.024,164.800 177.909,164.800 164.814 C 164.800 156.057,164.938 151.600,165.210 151.600 C 165.435 151.600,166.920 152.250,168.510 153.045 M235.294 177.500 C 235.346 191.085,235.438 196.793,235.500 190.184 L 235.611 178.168 241.583 176.284 C 244.868 175.248,247.745 174.400,247.978 174.400 C 248.802 174.400,248.535 197.759,247.700 198.701 C 246.601 199.941,236.025 203.468,235.530 202.759 C 235.201 202.289,235.164 202.293,235.298 202.785 C 235.481 203.459,232.986 204.519,221.600 208.603 C 217.530 210.063,211.790 212.145,208.845 213.229 C 205.900 214.313,203.335 215.200,203.145 215.200 C 202.955 215.200,202.800 210.340,202.800 204.400 L 202.800 193.600 208.200 193.600 L 213.600 193.600 213.600 177.857 L 213.600 162.115 216.900 160.599 C 222.265 158.134,234.575 152.801,234.900 152.800 C 235.065 152.800,235.242 163.915,235.294 177.500 M203.977 160.383 C 207.293 162.745,207.545 166.924,204.531 169.577 C 198.192 175.157,189.211 166.615,195.351 160.846 C 197.395 158.925,201.612 158.699,203.977 160.383 M170.000 168.577 L 170.000 171.200 171.819 171.200 L 173.638 171.200 173.519 168.700 L 173.400 166.200 171.700 166.077 L 170.000 165.954 170.000 168.577 M178.000 168.600 L 178.000 171.200 179.800 171.200 L 181.600 171.200 181.600 168.600 L 181.600 166.000 179.800 166.000 L 178.000 166.000 178.000 168.600 M170.000 176.223 L 170.000 178.846 171.646 178.723 L 173.292 178.600 173.407 176.800 C 173.589 173.977,173.373 173.600,171.573 173.600 L 170.000 173.600 170.000 176.223 M178.081 176.500 L 178.200 179.000 179.800 179.000 L 181.400 179.000 181.519 176.500 L 181.638 174.000 179.800 174.000 L 177.962 174.000 178.081 176.500 M217.200 180.600 L 217.200 186.800 218.800 186.800 L 220.400 186.800 220.400 180.600 L 220.400 174.400 218.800 174.400 L 217.200 174.400 217.200 180.600 M178.000 184.200 L 178.000 186.800 179.800 186.800 L 181.600 186.800 181.600 184.443 C 181.600 181.887,181.355 181.600,179.167 181.600 L 178.000 181.600 178.000 184.200 M147.519 223.300 L 147.400 225.800 144.600 225.862 C 143.060 225.897,141.395 225.942,140.900 225.962 L 140.000 226.000 140.000 236.600 L 140.000 247.200 137.200 247.200 L 134.400 247.200 134.400 236.600 L 134.400 226.000 131.033 226.000 C 126.426 226.000,126.400 225.984,126.400 223.157 L 126.400 220.800 137.019 220.800 L 147.638 220.800 147.519 223.300 M199.703 228.807 L 205.000 236.815 205.200 228.907 L 205.400 221.000 208.200 221.000 C 210.613 221.000,210.995 221.097,210.967 221.700 C 210.948 222.085,210.903 227.980,210.867 234.800 L 210.800 247.200 208.900 247.195 C 205.697 247.185,205.669 247.159,200.000 238.697 L 194.600 230.637 194.492 238.936 L 194.384 247.236 191.692 247.118 L 189.000 247.000 188.895 233.900 L 188.789 220.800 191.598 220.800 L 194.406 220.800 199.703 228.807 M160.191 228.446 C 163.535 229.375,165.593 232.668,165.598 237.100 L 165.600 239.200 159.200 239.200 C 152.988 239.200,152.800 239.224,152.800 240.031 C 152.800 243.170,157.592 244.098,163.900 242.180 C 165.857 241.585,165.163 245.768,163.174 246.564 C 154.799 249.915,146.993 245.682,147.005 237.797 C 147.017 230.463,152.767 226.385,160.191 228.446 M183.000 228.541 C 184.514 228.996,184.607 229.114,184.725 230.756 C 184.921 233.465,184.731 233.681,182.767 232.988 C 177.388 231.090,173.901 233.090,173.939 238.051 C 173.970 242.031,176.675 243.798,181.286 242.848 C 182.669 242.563,183.980 242.301,184.200 242.265 C 184.420 242.229,184.656 242.978,184.724 243.930 C 185.101 249.167,173.220 248.740,169.675 243.388 C 163.982 234.794,172.438 225.373,183.000 228.541 M229.505 229.142 C 235.379 232.172,235.861 242.118,230.308 245.718 C 222.124 251.025,212.805 244.611,214.792 235.039 C 216.048 228.990,223.456 226.020,229.505 229.142 M268.562 228.432 C 272.802 229.500,273.723 231.582,273.766 240.200 L 273.800 247.000 272.637 247.133 C 270.827 247.339,268.800 246.837,268.800 246.182 C 268.800 245.413,268.579 245.441,266.426 246.489 C 261.108 249.079,255.600 246.378,255.600 241.180 C 255.600 237.307,258.443 235.606,264.927 235.602 C 268.397 235.600,268.450 235.585,268.185 234.700 C 267.488 232.365,264.276 231.446,260.013 232.360 C 257.492 232.900,257.662 233.006,257.517 230.812 L 257.400 229.057 259.200 228.568 C 261.496 227.944,266.342 227.873,268.562 228.432 M242.599 234.300 C 243.650 237.545,244.608 240.371,244.728 240.579 C 244.847 240.788,245.861 238.178,246.980 234.779 L 249.015 228.600 251.908 228.482 C 253.498 228.418,254.800 228.445,254.800 228.544 C 254.800 228.642,253.976 230.855,252.969 233.461 C 251.961 236.067,250.411 240.090,249.523 242.400 C 247.638 247.306,247.689 247.257,244.686 247.073 C 241.943 246.906,241.960 246.920,240.675 243.600 C 239.594 240.808,235.254 229.727,234.918 228.900 C 234.766 228.526,235.470 228.400,237.701 228.400 L 240.687 228.400 242.599 234.300 M153.969 233.169 C 151.896 235.242,152.283 235.600,156.600 235.600 C 160.559 235.600,160.790 235.480,159.935 233.874 C 158.736 231.624,155.855 231.283,153.969 233.169 M222.310 232.610 C 220.423 233.658,219.564 236.896,220.375 239.907 C 221.584 244.397,227.376 244.335,228.222 239.822 C 229.227 234.465,226.018 230.550,222.310 232.610 M261.600 240.000 C 260.637 240.963,260.586 241.729,261.428 242.571 C 263.557 244.700,268.400 243.144,268.400 240.330 L 268.400 239.200 265.400 239.200 C 262.933 239.200,262.258 239.342,261.600 240.000 " stroke="none" fill="#5591d3" fill-rule="evenodd"></path><path id="path1" d="M187.000 101.437 C 180.746 102.231,178.520 102.614,175.880 103.352 C 174.605 103.708,173.248 104.000,172.865 104.000 C 172.482 104.000,171.463 104.360,170.600 104.800 C 169.737 105.240,168.636 105.600,168.153 105.600 C 167.671 105.600,166.584 105.943,165.738 106.362 C 164.892 106.781,163.210 107.511,162.000 107.983 C 159.366 109.012,158.039 109.572,157.105 110.047 C 156.723 110.241,156.153 110.400,155.839 110.400 C 155.524 110.400,155.207 110.535,155.133 110.700 C 155.060 110.865,153.830 111.611,152.400 112.358 C 150.970 113.105,149.710 113.825,149.600 113.958 C 149.490 114.091,148.545 114.630,147.500 115.156 C 146.455 115.681,145.600 116.266,145.600 116.456 C 145.600 116.645,145.410 116.800,145.178 116.800 C 144.946 116.800,143.658 117.546,142.316 118.457 C 139.944 120.068,139.509 120.400,137.266 122.307 C 136.680 122.806,135.341 123.886,134.291 124.707 C 130.453 127.709,122.542 135.947,120.400 139.171 C 119.844 140.009,119.514 140.424,117.676 142.600 C 117.304 143.040,116.768 143.850,116.484 144.400 C 115.855 145.619,115.439 146.292,113.314 149.520 C 111.657 152.036,106.400 162.386,106.400 163.132 C 106.400 163.348,105.860 164.729,105.200 166.200 C 104.540 167.671,104.000 169.220,104.000 169.643 C 104.000 170.065,103.820 170.723,103.601 171.105 C 102.860 172.394,100.870 180.978,100.657 183.800 L 100.446 186.600 100.846 184.200 C 102.448 174.600,106.333 163.299,111.071 154.456 C 113.196 150.489,119.174 141.226,120.400 140.000 C 120.510 139.890,121.306 138.900,122.170 137.800 C 126.985 131.663,136.662 123.027,144.564 117.813 C 176.663 96.633,219.424 95.630,252.000 115.294 C 253.210 116.024,254.799 116.977,255.532 117.411 C 257.348 118.487,263.901 123.433,265.500 124.935 C 266.215 125.607,266.800 125.951,266.800 125.699 C 266.800 125.447,266.125 124.738,265.300 124.123 C 264.475 123.508,263.710 122.907,263.600 122.788 C 263.165 122.317,257.595 118.159,256.531 117.511 C 255.909 117.133,255.043 116.593,254.607 116.311 C 251.537 114.333,250.272 113.604,247.800 112.391 C 246.260 111.635,244.910 110.913,244.800 110.787 C 244.690 110.661,243.970 110.272,243.200 109.922 C 238.069 107.591,237.101 107.200,236.468 107.200 C 236.079 107.200,235.589 107.047,235.380 106.860 C 235.171 106.673,233.650 106.106,232.000 105.600 C 230.350 105.094,228.829 104.527,228.620 104.340 C 228.411 104.153,227.853 104.000,227.379 104.000 C 226.906 104.000,224.737 103.555,222.559 103.012 C 214.593 101.024,196.548 100.225,187.000 101.437 M190.600 121.590 C 181.682 122.863,172.261 126.687,165.306 131.858 C 160.478 135.448,160.296 136.213,163.676 138.706 C 167.570 141.578,166.956 141.572,171.165 138.780 C 189.448 126.654,212.664 126.945,230.290 139.522 L 233.157 141.567 235.678 139.736 C 240.446 136.274,240.415 136.102,234.200 131.616 C 222.911 123.469,205.496 119.464,190.600 121.590 M271.800 130.800 C 276.587 135.600,276.800 135.794,276.800 135.377 C 276.800 135.005,267.733 126.000,267.359 126.000 C 267.169 126.000,269.167 128.160,271.800 130.800 M194.254 134.040 C 186.473 135.176,179.268 138.130,173.498 142.547 C 171.426 144.134,171.498 144.230,178.649 149.398 C 179.023 149.668,179.425 149.641,179.900 149.314 C 191.631 141.241,205.073 140.635,217.728 147.609 L 221.257 149.553 224.628 147.157 C 228.700 144.263,228.679 144.508,225.085 141.850 C 216.527 135.521,204.675 132.518,194.254 134.040 M279.373 139.166 C 285.059 146.209,290.572 155.751,294.066 164.598 C 295.110 167.239,295.972 169.183,295.982 168.919 C 295.992 168.654,295.834 168.024,295.631 167.519 C 295.427 167.013,294.589 164.890,293.768 162.800 C 291.917 158.091,288.635 151.834,285.305 146.667 C 282.438 142.218,282.831 142.753,279.597 138.900 C 276.330 135.009,276.170 135.199,279.373 139.166 M192.154 148.341 C 190.369 148.962,187.681 150.157,186.182 150.995 L 183.455 152.520 184.628 153.456 C 185.272 153.971,187.029 155.233,188.532 156.261 L 191.264 158.129 192.991 157.289 C 197.043 155.321,202.694 155.234,206.862 157.075 L 209.123 158.075 212.941 155.537 C 217.486 152.517,217.356 152.939,214.293 151.119 C 207.302 146.966,199.070 145.933,192.154 148.341 M164.800 164.814 C 164.800 177.909,164.793 178.024,163.999 177.600 C 162.955 177.041,152.284 173.583,152.118 173.749 C 151.578 174.289,151.863 198.034,152.416 198.587 C 152.754 198.925,156.444 200.366,160.616 201.787 C 182.641 209.292,202.010 215.721,202.142 215.571 C 202.225 215.477,202.417 207.237,202.570 197.260 L 202.847 179.121 194.523 179.260 L 186.200 179.400 186.282 171.194 C 186.327 166.681,186.237 162.799,186.082 162.566 C 185.611 161.861,166.082 151.600,165.210 151.600 C 164.938 151.600,164.800 156.057,164.800 164.814 M227.400 155.942 C 223.440 157.669,218.715 159.765,216.900 160.599 L 213.600 162.115 213.600 177.857 L 213.600 193.600 208.200 193.600 L 202.800 193.600 202.800 204.400 C 202.800 210.340,202.955 215.200,203.145 215.200 C 203.335 215.200,205.900 214.313,208.845 213.229 C 211.790 212.145,217.530 210.063,221.600 208.603 C 232.986 204.519,235.481 203.459,235.298 202.785 C 235.164 202.293,235.201 202.289,235.530 202.759 C 236.025 203.468,246.601 199.941,247.700 198.701 C 248.535 197.759,248.802 174.400,247.978 174.400 C 247.745 174.400,244.868 175.248,241.583 176.284 L 235.611 178.168 235.500 190.184 C 235.438 196.793,235.346 191.085,235.294 177.500 C 235.242 163.915,235.065 152.800,234.900 152.800 C 234.735 152.800,231.360 154.214,227.400 155.942 M197.200 159.628 C 193.436 161.210,192.179 165.850,194.703 168.849 C 199.495 174.545,209.016 169.726,206.081 163.090 C 204.692 159.950,200.407 158.280,197.200 159.628 M173.519 168.700 L 173.638 171.200 171.819 171.200 L 170.000 171.200 170.000 168.577 L 170.000 165.954 171.700 166.077 L 173.400 166.200 173.519 168.700 M181.600 168.600 L 181.600 171.200 179.800 171.200 L 178.000 171.200 178.000 168.600 L 178.000 166.000 179.800 166.000 L 181.600 166.000 181.600 168.600 M296.247 170.400 C 296.404 170.950,296.852 172.570,297.242 174.000 C 297.633 175.430,297.961 176.240,297.971 175.800 C 297.998 174.709,297.009 171.082,296.432 170.155 C 296.017 169.488,295.995 169.517,296.247 170.400 M173.335 174.300 C 173.438 174.685,173.471 175.810,173.407 176.800 L 173.292 178.600 171.646 178.723 L 170.000 178.846 170.000 176.223 L 170.000 173.600 171.573 173.600 C 172.733 173.600,173.196 173.784,173.335 174.300 M181.519 176.500 L 181.400 179.000 179.800 179.000 L 178.200 179.000 178.081 176.500 L 177.962 174.000 179.800 174.000 L 181.638 174.000 181.519 176.500 M220.400 180.600 L 220.400 186.800 218.800 186.800 L 217.200 186.800 217.200 180.600 L 217.200 174.400 218.800 174.400 L 220.400 174.400 220.400 180.600 M298.185 177.601 C 298.323 178.150,298.782 180.400,299.206 182.600 C 299.875 186.076,299.947 186.259,299.755 184.000 C 299.528 181.318,298.654 177.321,298.195 176.862 C 298.052 176.719,298.048 177.051,298.185 177.601 M180.967 181.843 C 181.445 182.026,181.600 182.662,181.600 184.443 L 181.600 186.800 179.800 186.800 L 178.000 186.800 178.000 184.200 L 178.000 181.600 179.167 181.600 C 179.809 181.600,180.619 181.709,180.967 181.843 M100.101 188.200 C 100.105 189.080,100.187 189.393,100.283 188.895 C 100.379 188.398,100.375 187.678,100.275 187.295 C 100.175 186.913,100.096 187.320,100.101 188.200 M300.093 188.400 C 300.093 189.170,300.175 189.485,300.276 189.100 C 300.376 188.715,300.376 188.085,300.276 187.700 C 300.175 187.315,300.093 187.630,300.093 188.400 M99.720 192.000 C 99.720 193.210,99.795 193.705,99.887 193.100 C 99.978 192.495,99.978 191.505,99.887 190.900 C 99.795 190.295,99.720 190.790,99.720 192.000 M300.524 192.600 C 300.526 193.920,300.601 194.412,300.690 193.693 C 300.779 192.974,300.777 191.894,300.686 191.293 C 300.595 190.692,300.522 191.280,300.524 192.600 M99.350 199.800 C 99.351 202.220,99.416 203.158,99.496 201.885 C 99.576 200.612,99.575 198.632,99.494 197.485 C 99.414 196.338,99.349 197.380,99.350 199.800 M300.524 207.400 C 300.526 208.720,300.601 209.212,300.690 208.493 C 300.779 207.774,300.777 206.694,300.686 206.093 C 300.595 205.492,300.522 206.080,300.524 207.400 M99.714 208.200 C 99.717 209.300,99.795 209.703,99.887 209.095 C 99.979 208.486,99.977 207.586,99.882 207.095 C 99.787 206.603,99.711 207.100,99.714 208.200 M300.101 211.800 C 300.105 212.680,300.187 212.993,300.283 212.495 C 300.379 211.998,300.375 211.278,300.275 210.895 C 300.175 210.513,300.096 210.920,300.101 211.800 M100.093 212.000 C 100.093 212.770,100.175 213.085,100.276 212.700 C 100.376 212.315,100.376 211.685,100.276 211.300 C 100.175 210.915,100.093 211.230,100.093 212.000 M100.493 214.800 C 100.493 215.570,100.575 215.885,100.676 215.500 C 100.776 215.115,100.776 214.485,100.676 214.100 C 100.575 213.715,100.493 214.030,100.493 214.800 M299.044 218.086 C 298.633 220.349,298.217 222.470,298.118 222.800 C 297.959 223.333,297.981 223.333,298.315 222.800 C 298.781 222.057,300.142 215.027,299.939 214.417 C 299.857 214.172,299.455 215.823,299.044 218.086 M100.835 217.400 C 100.814 218.680,102.615 225.964,103.052 226.362 C 103.195 226.493,103.180 226.060,103.017 225.400 C 102.855 224.740,102.302 222.400,101.789 220.200 C 101.276 218.000,100.847 216.740,100.835 217.400 M126.400 223.157 C 126.400 225.984,126.426 226.000,131.033 226.000 L 134.400 226.000 134.400 236.600 L 134.400 247.200 137.200 247.200 L 140.000 247.200 140.000 236.600 L 140.000 226.000 140.900 225.962 C 141.395 225.942,143.060 225.897,144.600 225.862 L 147.400 225.800 147.519 223.300 L 147.638 220.800 137.019 220.800 L 126.400 220.800 126.400 223.157 M188.895 233.900 L 189.000 247.000 191.692 247.118 L 194.384 247.236 194.492 238.936 L 194.600 230.637 200.000 238.697 C 205.669 247.159,205.697 247.185,208.900 247.195 L 210.800 247.200 210.867 234.800 C 210.903 227.980,210.948 222.085,210.967 221.700 C 210.995 221.097,210.613 221.000,208.200 221.000 L 205.400 221.000 205.200 228.907 L 205.000 236.815 199.703 228.807 L 194.406 220.800 191.598 220.800 L 188.789 220.800 188.895 233.900 M296.480 228.680 C 296.230 229.494,296.092 230.226,296.173 230.306 C 296.254 230.387,296.536 229.799,296.800 229.000 C 297.064 228.201,297.202 227.469,297.107 227.374 C 297.012 227.278,296.730 227.866,296.480 228.680 M152.812 228.445 C 146.010 231.160,144.733 241.970,150.766 245.778 C 153.928 247.775,159.298 248.115,163.174 246.564 C 165.163 245.768,165.857 241.585,163.900 242.180 C 157.592 244.098,152.800 243.170,152.800 240.031 C 152.800 239.224,152.988 239.200,159.200 239.200 L 165.600 239.200 165.598 237.100 C 165.590 230.215,159.206 225.893,152.812 228.445 M174.797 228.374 C 164.805 231.413,166.083 245.844,176.483 247.403 C 178.692 247.735,183.768 246.962,184.402 246.197 C 184.941 245.549,184.767 242.173,184.200 242.265 C 183.980 242.301,182.669 242.563,181.286 242.848 C 176.675 243.798,173.970 242.031,173.939 238.051 C 173.901 233.090,177.388 231.090,182.767 232.988 C 184.731 233.681,184.921 233.465,184.725 230.756 C 184.607 229.114,184.514 228.996,183.000 228.541 C 181.212 228.005,176.337 227.905,174.797 228.374 M219.400 228.978 C 211.496 233.077,213.292 245.446,222.056 247.276 C 231.216 249.188,237.835 239.166,232.383 231.640 C 229.863 228.162,223.493 226.855,219.400 228.978 M259.200 228.568 L 257.400 229.057 257.517 230.812 C 257.662 233.006,257.492 232.900,260.013 232.360 C 264.276 231.446,267.488 232.365,268.185 234.700 C 268.450 235.585,268.397 235.600,264.927 235.602 C 258.443 235.606,255.600 237.307,255.600 241.180 C 255.600 246.378,261.108 249.079,266.426 246.489 C 268.579 245.441,268.800 245.413,268.800 246.182 C 268.800 246.837,270.827 247.339,272.637 247.133 L 273.800 247.000 273.766 240.200 C 273.729 232.828,273.500 231.852,271.335 229.845 C 269.410 228.060,263.397 227.427,259.200 228.568 M234.918 228.900 C 235.254 229.727,239.594 240.808,240.675 243.600 C 241.960 246.920,241.943 246.906,244.686 247.073 C 247.689 247.257,247.638 247.306,249.523 242.400 C 250.411 240.090,251.961 236.067,252.969 233.461 C 253.976 230.855,254.800 228.642,254.800 228.544 C 254.800 228.445,253.498 228.418,251.908 228.482 L 249.015 228.600 246.980 234.779 C 245.861 238.178,244.847 240.788,244.728 240.579 C 244.608 240.371,243.650 237.545,242.599 234.300 L 240.687 228.400 237.701 228.400 C 235.470 228.400,234.766 228.526,234.918 228.900 M104.169 230.265 C 104.807 234.361,113.707 252.800,115.046 252.800 C 115.161 252.800,114.901 252.303,114.469 251.696 C 112.107 248.380,106.810 237.230,104.731 231.200 C 104.294 229.935,104.056 229.538,104.169 230.265 M158.835 232.513 C 159.540 233.054,160.400 234.516,160.400 235.174 C 160.400 235.446,159.023 235.600,156.600 235.600 C 152.283 235.600,151.896 235.242,153.969 233.169 C 155.244 231.895,157.613 231.575,158.835 232.513 M227.155 233.392 C 228.221 234.437,228.696 237.297,228.222 239.822 C 227.376 244.335,221.584 244.397,220.375 239.907 C 218.828 234.162,223.431 229.739,227.155 233.392 M294.708 233.908 C 293.835 236.335,294.103 236.604,295.015 234.215 C 295.400 233.207,295.639 232.306,295.547 232.213 C 295.454 232.120,295.076 232.883,294.708 233.908 M293.189 237.687 C 292.092 240.463,287.928 248.523,286.006 251.590 C 284.900 253.356,284.079 254.800,284.183 254.800 C 284.561 254.800,287.944 249.306,289.848 245.600 C 290.921 243.510,291.935 241.740,292.100 241.667 C 292.265 241.593,292.400 241.301,292.400 241.018 C 292.400 240.734,292.775 239.654,293.233 238.618 C 293.692 237.581,293.986 236.653,293.887 236.554 C 293.788 236.455,293.474 236.965,293.189 237.687 M268.400 240.330 C 268.400 243.144,263.557 244.700,261.428 242.571 C 259.619 240.762,261.460 239.200,265.400 239.200 L 268.400 239.200 268.400 240.330 M115.221 253.451 C 115.209 253.699,115.470 254.126,115.800 254.400 C 116.130 254.674,116.400 255.139,116.400 255.433 C 116.400 255.728,116.762 256.306,117.205 256.719 C 117.647 257.131,118.723 258.443,119.595 259.634 C 121.538 262.289,122.548 263.528,124.549 265.711 C 126.732 268.092,125.875 266.684,123.385 263.800 C 121.562 261.688,117.907 256.884,115.921 253.990 C 115.548 253.445,115.233 253.203,115.221 253.451 M282.681 256.639 C 282.286 257.168,282.108 257.600,282.285 257.600 C 282.634 257.600,283.738 256.001,283.528 255.800 C 283.457 255.733,283.077 256.111,282.681 256.639 M279.690 260.600 C 278.550 262.030,277.772 263.200,277.961 263.200 C 278.259 263.200,280.900 259.924,281.749 258.500 C 282.442 257.338,281.627 258.170,279.690 260.600 M275.979 265.022 C 275.451 265.584,275.288 265.941,275.618 265.814 C 276.139 265.615,277.434 264.000,277.073 264.000 C 277.000 264.000,276.507 264.460,275.979 265.022 M271.000 270.306 C 270.780 270.468,270.335 270.960,270.012 271.400 C 269.578 271.991,269.709 271.946,270.512 271.230 C 271.491 270.358,271.789 269.988,271.500 270.006 C 271.445 270.009,271.220 270.144,271.000 270.306 M131.614 272.932 C 132.846 274.052,137.028 277.456,137.618 277.819 C 137.958 278.029,137.603 277.660,136.830 277.000 C 136.056 276.340,134.557 275.035,133.498 274.100 C 132.440 273.165,131.451 272.400,131.301 272.400 C 131.151 272.400,131.292 272.640,131.614 272.932 M139.859 279.486 C 142.279 281.628,143.053 282.204,144.222 282.736 C 145.753 283.431,145.600 283.299,141.800 280.624 C 140.040 279.385,139.166 278.873,139.859 279.486 M259.600 279.855 C 257.398 281.584,257.379 281.603,257.833 281.588 C 258.035 281.581,259.010 280.867,260.000 280.000 C 262.233 278.045,262.009 277.963,259.600 279.855 M256.000 282.400 C 255.450 282.830,255.197 283.186,255.438 283.191 C 255.679 283.196,256.202 282.840,256.600 282.400 C 257.512 281.392,257.288 281.392,256.000 282.400 M146.200 283.797 C 147.518 284.876,151.342 287.201,151.787 287.192 C 152.196 287.185,150.082 285.796,147.000 284.049 C 146.120 283.550,145.760 283.436,146.200 283.797 M249.513 286.289 C 248.036 287.098,246.903 287.836,246.996 287.929 C 247.089 288.023,247.814 287.717,248.606 287.250 C 249.398 286.782,250.305 286.400,250.623 286.400 C 250.940 286.400,251.200 286.220,251.200 286.000 C 251.200 285.780,251.470 285.600,251.800 285.600 C 252.130 285.600,252.400 285.420,252.400 285.200 C 252.400 284.676,252.586 284.606,249.513 286.289 M152.600 287.522 C 153.206 288.119,157.208 290.125,157.403 289.930 C 157.497 289.836,156.365 289.167,154.887 288.444 C 153.409 287.720,152.380 287.306,152.600 287.522 M242.781 289.746 C 241.781 290.243,240.251 290.944,239.381 291.304 C 238.511 291.664,238.075 291.968,238.410 291.979 C 238.746 291.991,240.096 291.466,241.410 290.813 C 242.725 290.159,244.025 289.619,244.300 289.613 C 244.575 289.606,244.800 289.420,244.800 289.200 C 244.800 288.707,244.956 288.665,242.781 289.746 M162.400 292.169 C 162.950 292.501,163.670 292.773,164.000 292.774 C 164.803 292.776,163.852 292.216,162.400 291.832 L 161.400 291.567 162.400 292.169 M235.200 292.870 C 234.650 293.101,232.310 293.889,230.000 294.622 C 227.690 295.354,226.112 295.964,226.494 295.977 C 227.230 296.001,235.384 293.365,236.400 292.774 C 237.225 292.293,236.421 292.358,235.200 292.870 M167.943 294.223 C 168.681 294.561,169.851 294.917,170.543 295.014 C 171.505 295.149,171.389 295.053,170.044 294.605 C 167.349 293.705,166.457 293.543,167.943 294.223 M172.400 295.558 C 172.730 295.761,173.720 296.032,174.600 296.161 C 175.733 296.326,175.908 296.297,175.200 296.062 C 173.364 295.452,171.757 295.163,172.400 295.558 M221.600 296.800 C 220.808 297.054,220.767 297.120,221.400 297.120 C 221.840 297.120,222.650 296.976,223.200 296.800 C 223.992 296.546,224.033 296.480,223.400 296.480 C 222.960 296.480,222.150 296.624,221.600 296.800 M215.800 297.818 C 214.040 298.105,211.925 298.353,211.100 298.370 C 210.275 298.386,209.600 298.592,209.600 298.827 C 209.600 299.062,209.915 299.163,210.300 299.051 C 210.685 298.939,212.800 298.632,215.000 298.368 C 217.200 298.104,219.360 297.744,219.800 297.569 L 220.600 297.251 219.800 297.273 C 219.360 297.286,217.560 297.531,215.800 297.818 M183.200 297.998 C 184.188 298.316,187.889 298.535,187.567 298.256 C 187.475 298.177,186.230 298.014,184.800 297.894 C 183.240 297.763,182.600 297.805,183.200 297.998 M189.505 298.683 C 190.002 298.779,190.722 298.775,191.105 298.675 C 191.487 298.575,191.080 298.496,190.200 298.501 C 189.320 298.505,189.007 298.587,189.505 298.683 M197.521 299.099 C 199.788 299.170,203.388 299.170,205.521 299.098 C 207.655 299.026,205.800 298.968,201.400 298.968 C 197.000 298.968,195.255 299.027,197.521 299.099 " stroke="none" fill="#f6faf9" fill-rule="evenodd"></path></g></svg>